<svg width="271" height="64" viewBox="0 0 271 64" fill="none" xmlns="http://www.w3.org/2000/svg">
<path d="M39.8856 53.68V62.96C35.5 63 26.34 63 22.5 63C12.34 63 6.64 58.4 6.64 48.16V30.48H0V20.88H6.64V10.4H19.12V20.88H29.84V30.48H19.12V48C19.12 51.68 21.12 53.68 24.48 53.68C26.32 53.68 38.3183 53.68 39.8856 53.68Z" fill="#15B47B"/>
<path d="M51.8056 25.6C54.8456 21.44 59.9656 19.28 66.6056 19.28V30.64C65.5474 30.64 64.7656 30.64 63.8056 30.64C56.9256 30.64 52.3656 34.4 52.3656 42.64V62.96H39.8856V19.92H51.8056V25.6Z" fill="#15B47B"/>
<path d="M91.1519 19.28C104.272 19.28 111.872 25.36 111.872 38.4V50.68V62.96H100.192V57.6C97.8719 61.52 93.3919 63.6 87.0719 63.6C76.9919 63.6 70.9919 58 70.9919 50.56C70.9919 42.96 76.3519 37.68 89.4719 37.68H99.3919C99.3919 32.32 96.1919 30.64 89.4719 30.64C84.9119 30.64 73.0792 30.64 66.6056 30.64V19.28C72.3601 19.28 84.2719 19.28 91.1519 19.28ZM90.1919 55.2C94.3519 55.2 97.9519 53.28 99.3919 49.36V44.96H90.8319C84.9919 44.96 83.1519 47.12 83.1519 50C83.1519 53.12 85.7919 55.2 90.1919 55.2Z" fill="#15B47B"/>
<path d="M149.327 19.28C159.487 19.28 167.167 25.2 167.167 38.32V62.96H154.687V40.24C154.687 33.28 151.487 30.08 145.967 30.08C139.967 30.08 135.647 33.76 135.647 41.68V62.96H123.167V19.92H135.087V24.96C138.447 21.28 143.487 19.28 149.327 19.28Z" fill="#15B47B"/>
<path d="M193.5 63C186.22 63 172.5 62.96 167.167 62.96L167 54C172 54 188.159 54.16 193.439 54.16C199.199 54.16 201.359 52.64 201.359 50.24C201.359 43.2 175.359 50.4 175.359 33.2C175.359 25.04 182.719 19.28 195.279 19.28C201.199 19.28 229.418 19.5755 237.48 19.4956V29.0956C232.918 29.0755 199.199 28.72 195.279 28.72C189.679 28.72 187.279 30.48 187.279 32.72C187.279 40.08 213.279 32.96 213.279 49.92C213.279 57.92 206.38 63 193.5 63Z" fill="#15B47B"/>
<path d="M227.219 13.92C222.579 13.92 219.459 10.88 219.459 6.96C219.459 3.04 222.579 0 227.219 0C231.859 0 234.979 2.88 234.979 6.72C234.979 10.88 231.859 13.92 227.219 13.92ZM220.979 62.96V20.2902L233.459 20.7665V62.96H220.979Z" fill="#15B47B"/>
<path d="M267 50.6956L270.36 59.4956C267.8 61.3356 264.04 62.2156 260.2 62.2156C250.04 62.2156 244.12 57.0156 244.12 46.7756V29.0956H237.48V19.4956H244.12V9.01555H256.6V19.4956H267.32V29.0956H256.6V46.6156C256.6 50.2956 258.6 52.2956 261.96 52.2956C263.8 52.2956 265.64 51.7356 267 50.6956Z" fill="#15B47B"/>
<rect x="110" y="53" width="14" height="10" fill="#15B47B"/>
</svg>
