<svg width="860" height="230" viewBox="0 0 860 230" fill="none" xmlns="http://www.w3.org/2000/svg">
<rect x="145.386" width="43.1839" height="230" rx="21.5919" fill="#15B47B"/>
<rect x="24.4707" y="91.0417" width="43.125" height="165.538" rx="21.5625" transform="rotate(-90 24.4707 91.0417)" fill="#72E3B3"/>
<rect y="91.0417" width="43.125" height="68.6143" rx="21.5625" transform="rotate(-90 0 91.0417)" fill="#39CE94"/>
<rect x="145.386" y="91.0417" width="43.125" height="68.6143" rx="21.5625" transform="rotate(-90 145.386 91.0417)" fill="#72E3B3"/>
<rect x="25.4307" y="182.083" width="43.125" height="163.139" rx="21.5625" transform="rotate(-90 25.4307 182.083)" fill="#099263"/>
<rect x="25.4307" width="43.1839" height="230" rx="21.5919" fill="#15B47B"/>
<path d="M286.4 134.6C286.4 138.067 287.467 140.533 289.6 142C291.867 143.467 295 144.2 299 144.2C301 144.2 303.067 144.067 305.2 143.8C307.333 143.4 309.2 142.933 310.8 142.4C312 143.867 313 145.533 313.8 147.4C314.733 149.133 315.2 151.267 315.2 153.8C315.2 158.867 313.267 163 309.4 166.2C305.667 169.4 299 171 289.4 171C277.667 171 268.6 168.333 262.2 163C255.933 157.667 252.8 149 252.8 137V51.4C254.267 51 256.333 50.6 259 50.2C261.8 49.6667 264.733 49.4 267.8 49.4C273.667 49.4 278.2 50.4667 281.4 52.6C284.733 54.6 286.4 58.9333 286.4 65.6V78.4H312.6C313.4 79.8667 314.133 81.7333 314.8 84C315.6 86.1333 316 88.5333 316 91.2C316 95.8667 314.933 99.2667 312.8 101.4C310.8 103.4 308.067 104.4 304.6 104.4H286.4V134.6ZM366.478 167.8C365.145 168.2 363.011 168.6 360.078 169C357.278 169.4 354.345 169.6 351.278 169.6C348.345 169.6 345.678 169.4 343.278 169C341.011 168.6 339.078 167.8 337.478 166.6C335.878 165.4 334.611 163.8 333.678 161.8C332.878 159.667 332.478 156.933 332.478 153.6V93.6C332.478 90.5333 333.011 87.9333 334.078 85.8C335.278 83.5333 336.945 81.5333 339.078 79.8C341.211 78.0667 343.811 76.5333 346.878 75.2C350.078 73.7333 353.478 72.4667 357.078 71.4C360.678 70.3333 364.411 69.5333 368.278 69C372.145 68.3333 376.011 68 379.878 68C386.278 68 391.345 69.2667 395.078 71.8C398.811 74.2 400.678 78.2 400.678 83.8C400.678 85.6667 400.411 87.5333 399.878 89.4C399.345 91.1333 398.678 92.7333 397.878 94.2C395.078 94.2 392.211 94.3333 389.278 94.6C386.345 94.8667 383.478 95.2667 380.678 95.8C377.878 96.3333 375.211 96.9333 372.678 97.6C370.278 98.1333 368.211 98.8 366.478 99.6V167.8ZM453.375 146.4C455.642 146.4 458.108 146.2 460.775 145.8C463.575 145.267 465.642 144.6 466.975 143.8V127.8L452.575 129C448.842 129.267 445.775 130.067 443.375 131.4C440.975 132.733 439.775 134.733 439.775 137.4C439.775 140.067 440.775 142.267 442.775 144C444.908 145.6 448.442 146.4 453.375 146.4ZM451.775 67.8C458.975 67.8 465.508 68.5333 471.375 70C477.375 71.4667 482.442 73.7333 486.575 76.8C490.842 79.7333 494.108 83.5333 496.375 88.2C498.642 92.7333 499.775 98.1333 499.775 104.4V149.2C499.775 152.667 498.775 155.533 496.775 157.8C494.908 159.933 492.642 161.8 489.975 163.4C481.308 168.6 469.108 171.2 453.375 171.2C446.308 171.2 439.908 170.533 434.175 169.2C428.575 167.867 423.708 165.867 419.575 163.2C415.575 160.533 412.442 157.133 410.175 153C408.042 148.867 406.975 144.067 406.975 138.6C406.975 129.4 409.708 122.333 415.175 117.4C420.642 112.467 429.108 109.4 440.575 108.2L466.775 105.4V104C466.775 100.133 465.042 97.4 461.575 95.8C458.242 94.0667 453.375 93.2 446.975 93.2C441.908 93.2 436.975 93.7333 432.175 94.8C427.375 95.8667 423.042 97.2 419.175 98.8C417.442 97.6 415.975 95.8 414.775 93.4C413.575 90.8667 412.975 88.2667 412.975 85.6C412.975 82.1333 413.775 79.4 415.375 77.4C417.108 75.2667 419.708 73.4667 423.175 72C427.042 70.5333 431.575 69.4667 436.775 68.8C442.108 68.1333 447.108 67.8 451.775 67.8ZM582.164 106.4C582.164 102.267 580.964 99.2667 578.564 97.4C576.297 95.4 573.164 94.4 569.164 94.4C566.497 94.4 563.831 94.7333 561.164 95.4C558.631 96.0667 556.431 97.0667 554.564 98.4V167.8C553.231 168.2 551.097 168.6 548.164 169C545.364 169.4 542.431 169.6 539.364 169.6C536.431 169.6 533.764 169.4 531.364 169C529.097 168.6 527.164 167.8 525.564 166.6C523.964 165.4 522.697 163.8 521.764 161.8C520.964 159.667 520.564 156.933 520.564 153.6V93.6C520.564 90 521.297 87.0667 522.764 84.8C524.364 82.5333 526.497 80.4667 529.164 78.6C533.697 75.4 539.364 72.8 546.164 70.8C553.097 68.8 560.764 67.8 569.164 67.8C584.231 67.8 595.831 71.1333 603.964 77.8C612.097 84.3333 616.164 93.4667 616.164 105.2V167.8C614.831 168.2 612.697 168.6 609.764 169C606.964 169.4 604.031 169.6 600.964 169.6C598.031 169.6 595.364 169.4 592.964 169C590.697 168.6 588.764 167.8 587.164 166.6C585.564 165.4 584.297 163.8 583.364 161.8C582.564 159.667 582.164 156.933 582.164 153.6V106.4ZM640.566 168C638.432 166.133 636.699 163.933 635.366 161.4C634.166 158.867 633.566 156 633.566 152.8C633.566 150.133 634.166 147.533 635.366 145C636.699 142.333 638.299 139.867 640.166 137.6L674.566 97.2H637.766C636.966 95.7333 636.166 93.8667 635.366 91.6C634.699 89.3333 634.366 86.8667 634.366 84.2C634.366 79.5333 635.366 76.2 637.366 74.2C639.499 72.0667 642.299 71 645.766 71H708.766C710.899 72.8667 712.566 75.0667 713.766 77.6C715.099 80.1333 715.766 83 715.766 86.2C715.766 88.8667 715.099 91.5333 713.766 94.2C712.566 96.7333 711.032 99.1333 709.166 101.4L675.566 141.8H714.766C715.566 143.267 716.299 145.133 716.966 147.4C717.766 149.667 718.166 152.133 718.166 154.8C718.166 159.467 717.099 162.867 714.966 165C712.966 167 710.232 168 706.766 168H640.566ZM732.655 43.8C732.655 38.7333 734.321 34.4667 737.655 31C741.121 27.5333 745.655 25.8 751.255 25.8C756.855 25.8 761.321 27.5333 764.655 31C768.121 34.4667 769.855 38.7333 769.855 43.8C769.855 48.8667 768.121 53.1333 764.655 56.6C761.321 60.0667 756.855 61.8 751.255 61.8C745.655 61.8 741.121 60.0667 737.655 56.6C734.321 53.1333 732.655 48.8667 732.655 43.8ZM768.255 167.8C766.788 168.067 764.588 168.4 761.655 168.8C758.855 169.333 755.988 169.6 753.055 169.6C750.121 169.6 747.455 169.4 745.055 169C742.788 168.6 740.855 167.8 739.255 166.6C737.655 165.4 736.388 163.8 735.455 161.8C734.655 159.667 734.255 156.933 734.255 153.6V72.2C735.721 71.9333 737.855 71.6 740.655 71.2C743.588 70.6667 746.521 70.4 749.455 70.4C752.388 70.4 754.988 70.6 757.255 71C759.655 71.4 761.655 72.2 763.255 73.4C764.855 74.6 766.055 76.2667 766.855 78.4C767.788 80.4 768.255 83.0667 768.255 86.4V167.8ZM823.9 134.6C823.9 138.067 824.967 140.533 827.1 142C829.367 143.467 832.5 144.2 836.5 144.2C838.5 144.2 840.567 144.067 842.7 143.8C844.833 143.4 846.7 142.933 848.3 142.4C849.5 143.867 850.5 145.533 851.3 147.4C852.233 149.133 852.7 151.267 852.7 153.8C852.7 158.867 850.767 163 846.9 166.2C843.167 169.4 836.5 171 826.9 171C815.167 171 806.1 168.333 799.7 163C793.433 157.667 790.3 149 790.3 137V51.4C791.767 51 793.833 50.6 796.5 50.2C799.3 49.6667 802.233 49.4 805.3 49.4C811.167 49.4 815.7 50.4667 818.9 52.6C822.233 54.6 823.9 58.9333 823.9 65.6V78.4H850.1C850.9 79.8667 851.633 81.7333 852.3 84C853.1 86.1333 853.5 88.5333 853.5 91.2C853.5 95.8667 852.433 99.2667 850.3 101.4C848.3 103.4 845.567 104.4 842.1 104.4H823.9V134.6Z" fill="#15B47B"/>
</svg>
