<svg width="273" height="65" viewBox="0 0 273 65" fill="none" xmlns="http://www.w3.org/2000/svg">
<path d="M221.14 55V65C210.876 65 26.5793 65 22.7365 65C12.5691 65 6.64482 59.6855 6.64482 49.2201V31H0V21H6.64482V11H19V21H221L221.14 31H19.1339V49.0566C19.1339 52.8176 21.1353 54.8616 24.4978 54.8616C26.3391 54.8616 213.138 55 221.14 55Z" fill="#15B47B"/>
<path d="M51.8432 26.5C53.3685 24.3684 55.6574 22.3429 60 21.5C64.3189 20.6617 70.6867 21 74 21V26V31C72.5 31 65.5 31 64 31C57.115 31 52.4037 35.1572 52.4037 43.5786V65H39.9146V21H51.8432V26.5Z" fill="#095C43"/>
<path d="M91.5 21C104.63 21 111.953 25.9182 111.953 39.2453V65H100.265V60C97.943 64.0063 93.4597 65 87.1351 65C77.0478 65 71.0434 59.2767 71.0434 51.673C71.0434 43.9057 76.4073 38.5094 89.5369 38.5094H99.4641C99.4641 33.0315 96.2249 31 89.5 31C84.9367 31 82.5 31 74 31V21C82.5 21 84.615 21 91.5 21ZM90.2574 56.4151C94.4204 56.4151 98.023 54.4528 99.4641 50.4465V45.9497H90.8978C85.0536 45.9497 83.2123 48.1572 83.2123 51.1006C83.2123 54.2893 85.8542 56.4151 90.2574 56.4151Z" fill="#095C43"/>
<path d="M149.5 21C159.667 21 167.288 25.7547 167.288 39.1635V65H154.799V41.1258C154.799 34.0126 151.524 31 146 31C139.996 31 135.745 34.5031 135.745 42.5975V65H123.256V21H135.185V25.5094C138.547 21.7484 143.656 21 149.5 21Z" fill="#095C43"/>
<path d="M193.1 65C185.814 65 174.012 65 167.288 65V54.9712C172.963 54.9752 188.276 54.9827 193.559 54.9827C199.324 54.9827 201.506 53.7987 201.506 51.3459C201.506 44.1509 175.487 51.5094 175.487 33.9308C175.487 25.5912 182.852 21 195.421 21C201.345 21 216.5 21 221 21L221.14 31C212.14 31 199.344 31 195.421 31C189.817 31 187.415 31.1509 187.415 33.4403C187.415 40.9623 213.434 33.6855 213.434 51.0189C213.434 59.195 205.989 65 193.1 65Z" fill="#095C43"/>
<path d="M227.384 14.2264C222.741 14.2264 219.619 11.1195 219.619 7.11321C219.619 3.10692 222.741 0 227.384 0C232.028 0 235.15 2.9434 235.15 6.86793C235.15 11.1195 232.028 14.2264 227.384 14.2264ZM221.14 65L221 21H227H233.629V65H221.14Z" fill="#15B47B"/>
<path d="M269.638 53.2264L273 62.2201C270.438 64.1006 266.675 65 262.833 65C252.665 65 246.741 59.6855 246.741 49.2201V31H233.629V21H246.741V10.6289H259.23V21H269.958V31H259.23V49.0566C259.23 52.8176 261.231 54.8616 264.594 54.8616C266.435 54.8616 268.277 54.2893 269.638 53.2264Z" fill="#15B47B"/>
</svg>
