<svg width="337" height="84" viewBox="0 0 337 84" fill="none" xmlns="http://www.w3.org/2000/svg">
<path d="M0.5 35.5V31C4.5 29.8667 7.83333 28.1667 10.5 25.9C13.2333 23.5667 15.2667 20.9 16.6 17.9H21.7V30H33.2V35.5H21.7V66.2C21.7 70.3333 22.1333 73.2667 23 75C23.9333 76.7333 25.4667 77.6 27.6 77.6C30.2 77.6 32.1667 76.4 33.5 74L35.6 76.9C33.7333 81.6333 29.3333 84 22.4 84C17.8 84 14.2 82.9333 11.6 80.8C9.06667 78.6667 7.8 75.6667 7.8 71.8V35.5H0.5ZM61.9836 67.5C61.9836 70.1 62.0836 72.1667 62.2836 73.7C62.5503 75.1667 63.0503 76.3 63.7836 77.1C64.5169 77.9 65.5836 78.4333 66.9836 78.7C68.3836 78.9 70.2503 79 72.5836 79V83H39.1836V79C41.1836 78.8667 42.7836 78.6667 43.9836 78.4C45.1836 78.1333 46.0836 77.6 46.6836 76.8C47.2836 76 47.6503 74.8667 47.7836 73.4C47.9836 71.8667 48.0836 69.8333 48.0836 67.3V55.1C48.0836 50.9667 47.9836 47.6667 47.7836 45.2C47.5836 42.7333 47.1503 40.8333 46.4836 39.5C45.8169 38.1667 44.8503 37.3 43.5836 36.9C42.3836 36.4333 40.7836 36.2 38.7836 36.2V32.7L58.7836 29L60.3836 40.5H60.7836C62.5836 36.9667 64.9503 34.1667 67.8836 32.1C70.8169 30.0333 73.9169 29 77.1836 29C79.7169 29 81.7836 29.6333 83.3836 30.9C84.9836 32.1667 85.7836 33.7667 85.7836 35.7C85.7836 37.8333 85.1503 39.6333 83.8836 41.1C82.6836 42.5667 81.0169 43.3 78.8836 43.3C77.8836 43.3 76.9836 43.1 76.1836 42.7C75.3836 42.3 74.6503 41.8667 73.9836 41.4C73.3836 40.8667 72.7503 40.4 72.0836 40C71.4836 39.5333 70.8503 39.3 70.1836 39.3C68.9169 39.3 67.7169 40.1333 66.5836 41.8C65.4503 43.4667 64.5169 45.7 63.7836 48.5C63.2503 50.5 62.8169 52.7667 62.4836 55.3C62.1503 57.7667 61.9836 60.2333 61.9836 62.7V67.5ZM120.388 54.5C114.788 57.0333 110.555 59.4 107.688 61.6C104.888 63.7333 103.488 65.9667 103.488 68.3C103.488 70.2333 104.022 71.7667 105.088 72.9C106.155 74.0333 107.488 74.6 109.088 74.6C110.688 74.6 112.188 74.3333 113.588 73.8C114.988 73.2 116.188 72.4333 117.188 71.5C118.188 70.5667 118.955 69.4667 119.488 68.2C120.088 66.8667 120.388 65.4667 120.388 64V54.5ZM120.388 49.2V45C120.388 41.1333 119.688 38.3333 118.288 36.6C116.955 34.8 114.855 33.9 111.988 33.9C110.055 33.9 108.588 34.4333 107.588 35.5C106.588 36.5 105.655 38.2 104.788 40.6C104.188 42.2667 103.322 43.5667 102.188 44.5C101.122 45.4333 99.6216 45.9 97.6883 45.9C95.8216 45.9 94.3883 45.3333 93.3883 44.2C92.3883 43.0667 91.8883 41.4667 91.8883 39.4C91.8883 36.2 93.6216 33.6667 97.0883 31.8C100.622 29.9333 105.922 29 112.988 29C120.455 29 125.788 30.3667 128.988 33.1C132.188 35.7667 133.788 40.2667 133.788 46.6V68.5C133.788 74.1667 134.922 77 137.188 77C138.455 77 139.622 76.5667 140.688 75.7L142.188 78.6C141.255 80.2667 139.788 81.6 137.788 82.6C135.855 83.5333 133.655 84 131.188 84C128.122 84 125.788 83.0667 124.188 81.2C122.588 79.3333 121.788 76.7 121.788 73.3H121.288C119.355 76.7667 116.855 79.4 113.788 81.2C110.722 83 107.222 83.9 103.288 83.9C99.0883 83.9 95.7216 82.7333 93.1883 80.4C90.6549 78 89.3883 74.9 89.3883 71.1C89.3883 68.1667 90.6883 65.4333 93.2883 62.9C95.8883 60.3 100.222 57.7667 106.288 55.3L120.388 49.2ZM169.11 66.7C169.11 69.4333 169.177 71.6 169.31 73.2C169.51 74.7333 169.877 75.9333 170.41 76.8C171.01 77.6 171.877 78.1333 173.01 78.4C174.21 78.6667 175.81 78.8667 177.81 79V83H146.31V79C148.243 78.8667 149.777 78.6667 150.91 78.4C152.11 78.1333 153.01 77.6 153.61 76.8C154.277 76 154.71 74.8667 154.91 73.4C155.11 71.9333 155.21 69.9333 155.21 67.4V54.9C155.21 50.9667 155.143 47.8 155.01 45.4C154.877 42.9333 154.71 41.2667 154.51 40.4C154.31 39.5333 154.043 38.8333 153.71 38.3C153.377 37.7 152.877 37.2667 152.21 37C151.543 36.6667 150.71 36.4667 149.71 36.4C148.71 36.2667 147.443 36.2 145.91 36.2V32.8L165.21 29L166.51 37.8H166.91C169.11 35 171.71 32.8333 174.71 31.3C177.71 29.7667 181.01 29 184.61 29C188.877 29 192.31 29.6 194.91 30.8C197.577 31.9333 199.943 33.8667 202.01 36.6C203.143 38.1333 204.143 40.1333 205.01 42.6C205.877 45 206.31 48.3333 206.31 52.6V66.7C206.31 69.4333 206.377 71.6 206.51 73.2C206.71 74.7333 207.077 75.9333 207.61 76.8C208.21 77.6 209.077 78.1333 210.21 78.4C211.343 78.6667 212.877 78.8667 214.81 79V83H183.51V79C185.51 78.9333 187.077 78.7667 188.21 78.5C189.41 78.1667 190.31 77.6 190.91 76.8C191.51 76 191.91 74.8667 192.11 73.4C192.31 71.8667 192.41 69.8667 192.41 67.4V53.8C192.41 50.4 192.21 47.5333 191.81 45.2C191.41 42.8667 190.743 41 189.81 39.6C188.943 38.1333 187.777 37.1 186.31 36.5C184.843 35.8333 183.01 35.5 180.81 35.5C178.677 35.5 176.843 36.1 175.31 37.3C173.777 38.5 172.443 40.1667 171.31 42.3C170.71 43.5 170.177 45.0667 169.71 47C169.31 48.8667 169.11 50.8333 169.11 52.9V66.7ZM224.566 83H221.466V64.8H225.666C226.8 69.6 228.433 73.1 230.566 75.3C232.7 77.5 235.466 78.6 238.866 78.6C241.333 78.6 243.233 78.1 244.566 77.1C245.966 76.0333 246.666 74.6 246.666 72.8C246.666 70.9333 245.833 69.1333 244.166 67.4C242.5 65.6 239.8 63.7 236.066 61.7C231 58.9667 227.366 56.2667 225.166 53.6C222.966 50.8667 221.866 47.8 221.866 44.4C221.866 42.2 222.266 40.1667 223.066 38.3C223.933 36.3667 225.066 34.7 226.466 33.3C227.933 31.9 229.666 30.8333 231.666 30.1C233.666 29.3 235.833 28.9 238.166 28.9C240.233 28.9 242.266 29.2 244.266 29.8C246.333 30.4 248.133 31.2333 249.666 32.3L251.466 29.9H254.066V45H250.166C248.633 41.2 247.033 38.4667 245.366 36.8C243.766 35.1333 241.8 34.3 239.466 34.3C237.6 34.3 236.1 34.8 234.966 35.8C233.9 36.8 233.366 38.1333 233.366 39.8C233.366 41.6667 234.166 43.4333 235.766 45.1C237.433 46.7667 240.166 48.6 243.966 50.6C246.633 52.0667 248.933 53.5 250.866 54.9C252.8 56.3 254.366 57.7333 255.566 59.2C256.766 60.6 257.633 62.1 258.166 63.7C258.766 65.2333 259.066 66.9 259.066 68.7C259.066 71.0333 258.633 73.1333 257.766 75C256.9 76.8667 255.666 78.4667 254.066 79.8C252.466 81.1333 250.533 82.1667 248.266 82.9C246.066 83.6333 243.6 84 240.866 84C238 84 235.333 83.6333 232.866 82.9C230.4 82.1 228.366 80.9667 226.766 79.5L224.566 83ZM288.348 66.6C288.348 69.2667 288.448 71.4 288.648 73C288.848 74.6 289.248 75.8333 289.848 76.7C290.448 77.5667 291.315 78.1667 292.448 78.5C293.582 78.7667 295.115 78.9333 297.048 79V83H265.548V79C267.415 78.9333 268.915 78.7333 270.048 78.4C271.248 78 272.148 77.4 272.748 76.6C273.415 75.7333 273.848 74.5667 274.048 73.1C274.315 71.5667 274.448 69.6333 274.448 67.3V55C274.448 51.1333 274.382 47.9667 274.248 45.5C274.115 42.9667 273.948 41.2333 273.748 40.3C273.415 38.6333 272.648 37.5333 271.448 37C270.315 36.4667 268.215 36.2 265.148 36.2V32.8L288.348 29V66.6ZM273.648 7.8C273.648 5.6 274.382 3.76666 275.848 2.3C277.382 0.766662 279.215 -4.29153e-06 281.348 -4.29153e-06C283.548 -4.29153e-06 285.382 0.766662 286.848 2.3C288.382 3.76666 289.148 5.6 289.148 7.8C289.148 9.93333 288.382 11.7667 286.848 13.3C285.382 14.7667 283.548 15.5 281.348 15.5C279.215 15.5 277.382 14.7667 275.848 13.3C274.382 11.7667 273.648 9.93333 273.648 7.8ZM301.281 35.5V31C305.281 29.8667 308.615 28.1667 311.281 25.9C314.015 23.5667 316.048 20.9 317.381 17.9H322.481V30H333.981V35.5H322.481V66.2C322.481 70.3333 322.915 73.2667 323.781 75C324.715 76.7333 326.248 77.6 328.381 77.6C330.981 77.6 332.948 76.4 334.281 74L336.381 76.9C334.515 81.6333 330.115 84 323.181 84C318.581 84 314.981 82.9333 312.381 80.8C309.848 78.6667 308.581 75.6667 308.581 71.8V35.5H301.281Z" fill="#15B47B"/>
</svg>
