<svg width="177" height="77" viewBox="0 0 177 77" fill="none" xmlns="http://www.w3.org/2000/svg">
<path d="M26.2 16.32C38.28 16.32 47.64 24.96 47.64 38.48C47.64 52 38.28 60.64 26.2 60.64C20.44 60.64 15.8 58.8 12.68 55.04V60H0.76V0.639997H13.24V21.52C16.44 18 20.84 16.32 26.2 16.32ZM24.04 50.4C30.28 50.4 35 45.92 35 38.48C35 31.04 30.28 26.56 24.04 26.56C17.8 26.56 13.08 31.04 13.08 38.48C13.08 45.92 17.8 50.4 24.04 50.4ZM55.9944 60V0.639997H68.4744V60H55.9944ZM100.537 60.64C86.8569 60.64 76.8569 51.44 76.8569 38.48C76.8569 25.52 86.8569 16.32 100.537 16.32C114.217 16.32 124.137 25.52 124.137 38.48C124.137 51.44 114.217 60.64 100.537 60.64ZM100.537 50.4C106.777 50.4 111.497 45.92 111.497 38.48C111.497 31.04 106.777 26.56 100.537 26.56C94.2969 26.56 89.4969 31.04 89.4969 38.48C89.4969 45.92 94.2969 50.4 100.537 50.4ZM165.039 16.96H176.879V52.8C176.879 68.8 168.239 76.16 152.719 76.16C144.559 76.16 136.639 74.16 131.599 70.24L136.559 61.28C140.239 64.24 146.239 66.16 151.759 66.16C160.559 66.16 164.399 62.16 164.399 54.4V52.56C161.119 56.16 156.399 57.92 150.799 57.92C138.879 57.92 129.279 49.68 129.279 37.12C129.279 24.56 138.879 16.32 150.799 16.32C156.799 16.32 161.759 18.32 165.039 22.48V16.96ZM153.279 47.68C159.839 47.68 164.559 43.44 164.559 37.12C164.559 30.8 159.839 26.56 153.279 26.56C146.719 26.56 141.919 30.8 141.919 37.12C141.919 43.44 146.719 47.68 153.279 47.68Z" fill="black"/>
</svg>
