<svg width="637" height="89" viewBox="0 0 637 89" fill="none" xmlns="http://www.w3.org/2000/svg">
<path d="M37.7 65.4L41.9 76.4C38.7 78.7 34 79.8 29.2 79.8C16.5 79.8 9.1 73.3 9.1 60.5V38.4H0.8V26.4H9.1V13.3H24.7V26.4H38.1V38.4H24.7V60.3C24.7 64.9 27.2 67.4 31.4 67.4C33.7 67.4 36 66.7 37.7 65.4ZM65.557 32.3C69.357 27.1 75.757 24.4 84.057 24.4V38.8C82.757 38.7 81.757 38.6 80.557 38.6C71.957 38.6 66.257 43.3 66.257 53.6V79H50.657V25.2H65.557V32.3ZM114.74 24.4C131.14 24.4 140.64 32 140.64 48.3V79H126.04V72.3C123.14 77.2 117.54 79.8 109.64 79.8C97.0398 79.8 89.5398 72.8 89.5398 63.5C89.5398 54 96.2398 47.4 112.64 47.4H125.04C125.04 40.7 121.04 36.8 112.64 36.8C106.94 36.8 101.04 38.7 97.1398 41.8L91.5398 30.9C97.4398 26.7 106.14 24.4 114.74 24.4ZM113.54 69.3C118.74 69.3 123.24 66.9 125.04 62V56.5H114.34C107.04 56.5 104.74 59.2 104.74 62.8C104.74 66.7 108.04 69.3 113.54 69.3ZM187.459 24.4C200.159 24.4 209.759 31.8 209.759 48.2V79H194.159V50.6C194.159 41.9 190.159 37.9 183.259 37.9C175.759 37.9 170.359 42.5 170.359 52.4V79H154.759V25.2H169.659V31.5C173.859 26.9 180.159 24.4 187.459 24.4ZM241.999 79.8C232.899 79.8 223.699 77.3 218.699 74L223.899 62.8C228.699 65.9 235.999 68 242.599 68C249.799 68 252.499 66.1 252.499 63.1C252.499 54.3 219.999 63.3 219.999 41.8C219.999 31.6 229.199 24.4 244.899 24.4C252.299 24.4 260.499 26.1 265.599 29.1L260.399 40.2C255.099 37.2 249.799 36.2 244.899 36.2C237.899 36.2 234.899 38.4 234.899 41.2C234.899 50.4 267.399 41.5 267.399 62.7C267.399 72.7 258.099 79.8 241.999 79.8ZM284.824 17.7C279.024 17.7 275.124 13.9 275.124 9C275.124 4.1 279.024 0.299994 284.824 0.299994C290.624 0.299994 294.524 3.9 294.524 8.7C294.524 13.9 290.624 17.7 284.824 17.7ZM277.024 79V25.2H292.624V79H277.024ZM337.602 65.4L341.802 76.4C338.602 78.7 333.902 79.8 329.102 79.8C316.402 79.8 309.002 73.3 309.002 60.5V38.4H300.702V26.4H309.002V13.3H324.602V26.4H338.002V38.4H324.602V60.3C324.602 64.9 327.102 67.4 331.302 67.4C333.602 67.4 335.902 66.7 337.602 65.4Z" fill="#15B47B"/>
<path d="M400.2 28.32C412.28 28.32 421.64 36.96 421.64 50.48C421.64 64 412.28 72.64 400.2 72.64C394.44 72.64 389.8 70.8 386.68 67.04V72H374.76V12.64H387.24V33.52C390.44 30 394.84 28.32 400.2 28.32ZM398.04 62.4C404.28 62.4 409 57.92 409 50.48C409 43.04 404.28 38.56 398.04 38.56C391.8 38.56 387.08 43.04 387.08 50.48C387.08 57.92 391.8 62.4 398.04 62.4ZM429.994 72V12.64H442.474V72H429.994ZM474.537 72.64C460.857 72.64 450.857 63.44 450.857 50.48C450.857 37.52 460.857 28.32 474.537 28.32C488.217 28.32 498.137 37.52 498.137 50.48C498.137 63.44 488.217 72.64 474.537 72.64ZM474.537 62.4C480.777 62.4 485.497 57.92 485.497 50.48C485.497 43.04 480.777 38.56 474.537 38.56C468.297 38.56 463.497 43.04 463.497 50.48C463.497 57.92 468.297 62.4 474.537 62.4ZM539.039 28.96H550.879V64.8C550.879 80.8 542.239 88.16 526.719 88.16C518.559 88.16 510.639 86.16 505.599 82.24L510.559 73.28C514.239 76.24 520.239 78.16 525.759 78.16C534.559 78.16 538.399 74.16 538.399 66.4V64.56C535.119 68.16 530.399 69.92 524.799 69.92C512.879 69.92 503.279 61.68 503.279 49.12C503.279 36.56 512.879 28.32 524.799 28.32C530.799 28.32 535.759 30.32 539.039 34.48V28.96ZM527.279 59.68C533.839 59.68 538.559 55.44 538.559 49.12C538.559 42.8 533.839 38.56 527.279 38.56C520.719 38.56 515.919 42.8 515.919 49.12C515.919 55.44 520.719 59.68 527.279 59.68Z" fill="black"/>
</svg>
